<svg width="182" height="40" viewBox="0 0 182 40" fill="none" xmlns="http://www.w3.org/2000/svg">
<path d="M53.0699 26.6958C53.0699 27.569 52.8906 28.2399 52.5321 28.7087C52.1829 29.1775 51.5993 29.4118 50.7813 29.4118C50.0092 29.4118 49.4623 29.1775 49.1406 28.7087C48.8281 28.2399 48.6719 27.569 48.6719 26.6958V12.1232C48.6719 11.2501 48.8281 10.5791 49.1406 10.1104C49.4623 9.6416 50.0092 9.40723 50.7813 9.40723C51.5993 9.40723 52.1829 9.6416 52.5321 10.1104C52.8906 10.5791 53.0699 11.2501 53.0699 12.1232V26.6958Z" fill="#343A40"/>
<path d="M54.4049 22.4632C54.4049 21.4889 54.5612 20.5698 54.8738 19.7058C55.1954 18.8326 55.6733 18.0698 56.3075 17.4172C56.9509 16.7646 57.7506 16.2453 58.7065 15.8593C59.6715 15.4732 60.802 15.2803 62.098 15.2803C63.3388 15.2803 64.4372 15.4594 65.3931 15.8179C66.3489 16.1764 67.1532 16.6773 67.8056 17.3207C68.4582 17.9549 68.9546 18.7131 69.2947 19.5955C69.6347 20.4686 69.8048 21.4245 69.8048 22.4632C69.8048 23.4283 69.6439 24.3427 69.3222 25.2067C69.0006 26.0615 68.518 26.8152 67.8746 27.4678C67.2313 28.1111 66.4271 28.6258 65.462 29.0119C64.4968 29.3887 63.3755 29.5771 62.098 29.5771C60.8388 29.5771 59.7267 29.3979 58.7615 29.0394C57.8056 28.6718 57.0015 28.1709 56.3489 27.5366C55.7055 26.8933 55.2183 26.1397 54.8875 25.2757C54.5658 24.4025 54.4049 23.465 54.4049 22.4632ZM58.996 22.4632C58.996 23.0698 59.0511 23.6489 59.1614 24.2003C59.2716 24.7425 59.4463 25.2205 59.6853 25.6342C59.9334 26.0477 60.2552 26.3786 60.6503 26.6267C61.0456 26.8657 61.5281 26.9852 62.098 26.9852C62.6219 26.9852 63.0768 26.875 63.4628 26.6543C63.8581 26.4338 64.1798 26.1258 64.428 25.7306C64.6853 25.3354 64.8783 24.862 65.0069 24.3106C65.1356 23.7499 65.2 23.1342 65.2 22.4632C65.2 21.8565 65.1402 21.282 65.0208 20.7398C64.9105 20.1884 64.7313 19.7058 64.4831 19.2922C64.2349 18.8694 63.9133 18.5385 63.518 18.2996C63.132 18.0514 62.6586 17.9273 62.098 17.9273C61.5373 17.9273 61.0594 18.0467 60.6641 18.2858C60.2689 18.5247 59.9473 18.851 59.6991 19.2646C59.4509 19.6783 59.2716 20.1607 59.1614 20.7123C59.0511 21.2637 58.996 21.8473 58.996 22.4632Z" fill="#343A40"/>
<path d="M81.1215 26.7509C80.8733 27.2104 80.57 27.601 80.2115 27.9228C79.8624 28.2444 79.4716 28.511 79.0398 28.7225C78.6169 28.9246 78.162 29.0762 77.6748 29.1774C77.1968 29.2693 76.7052 29.3153 76.1996 29.3153C75.354 29.3153 74.582 29.1636 73.8834 28.8602C73.1849 28.5569 72.5829 28.1203 72.0774 27.5506C71.5811 26.9715 71.1951 26.2637 70.9193 25.4274C70.6435 24.5909 70.5056 23.635 70.5056 22.5597C70.5056 21.5487 70.6344 20.602 70.8918 19.7196C71.1491 18.8373 71.5213 18.0699 72.0085 17.4173C72.5048 16.7647 73.1114 16.25 73.8284 15.8732C74.5452 15.4963 75.3633 15.3079 76.2823 15.3079C77.3301 15.3079 78.2585 15.5101 79.0673 15.9144C79.8853 16.3189 80.5885 16.9807 81.1767 17.8997V17.5414C81.1767 16.8796 81.3559 16.3833 81.7144 16.0523C82.082 15.7123 82.5875 15.5422 83.2309 15.5422C83.6169 15.5422 83.9432 15.6066 84.2098 15.7353C84.4762 15.8548 84.6876 16.0386 84.8439 16.2868C85.0002 16.5257 85.1105 16.8245 85.1748 17.1829C85.2484 17.5321 85.2851 17.932 85.2851 18.3823V27.6195C85.2851 28.7408 85.1427 29.7426 84.8578 30.6249C84.582 31.5073 84.15 32.2519 83.5618 32.8584C82.9735 33.465 82.2199 33.9246 81.3007 34.2372C80.3816 34.5588 79.2879 34.7196 78.0195 34.7196C77.128 34.7196 76.3375 34.6783 75.6481 34.5955C74.968 34.5221 74.3798 34.4072 73.8834 34.2509C73.3872 34.0762 73.0104 33.8833 72.7529 33.6719C72.5048 33.4604 72.3807 33.1847 72.3807 32.8447C72.3807 32.6516 72.4082 32.4679 72.4634 32.2932C72.5186 32.1186 72.6013 31.9623 72.7115 31.8244C72.8311 31.6957 72.9827 31.5901 73.1666 31.5073C73.3595 31.4339 73.5939 31.397 73.8696 31.397C74.1638 31.397 74.4579 31.4154 74.752 31.4522C75.0553 31.4889 75.3679 31.5257 75.6895 31.5624C76.0204 31.6084 76.3651 31.6497 76.7235 31.6866C77.0912 31.7233 77.4864 31.7417 77.9092 31.7417C78.4147 31.7417 78.8651 31.6912 79.2604 31.5901C79.6555 31.4889 79.9909 31.3097 80.2667 31.0523C80.5425 30.795 80.7539 30.4503 80.9009 30.0183C81.048 29.5955 81.1215 29.0533 81.1215 28.3915V26.7509ZM81.1215 22.4633C81.1215 21.7922 81.0709 21.181 80.9699 20.6296C80.878 20.0781 80.7171 19.6094 80.4873 19.2233C80.2575 18.8281 79.9496 18.5248 79.5636 18.3134C79.1775 18.0928 78.6951 17.9826 78.116 17.9826C77.5461 17.9826 77.0728 18.0974 76.696 18.3272C76.3284 18.5569 76.0342 18.8741 75.8136 19.2784C75.5931 19.6829 75.4368 20.1562 75.3448 20.6986C75.2621 21.2408 75.2208 21.8199 75.2208 22.4356C75.2208 23.8419 75.4689 24.8989 75.9653 25.6066C76.4615 26.3143 77.1831 26.6682 78.1298 26.6682C78.5709 26.659 78.9708 26.5762 79.3292 26.42C79.6968 26.2546 80.014 26.0019 80.2805 25.6617C80.5471 25.3216 80.7539 24.8896 80.9009 24.3657C81.048 23.8419 81.1215 23.2077 81.1215 22.4633Z" fill="#343A40"/>
<path d="M86.551 22.4632C86.551 21.4889 86.7073 20.5698 87.0197 19.7058C87.3415 18.8326 87.8194 18.0698 88.4536 17.4172C89.097 16.7646 89.8966 16.2453 90.8524 15.8593C91.8176 15.4732 92.9481 15.2803 94.2441 15.2803C95.4848 15.2803 96.5831 15.4594 97.539 15.8179C98.4949 16.1764 99.2991 16.6773 99.9517 17.3207C100.604 17.9549 101.101 18.7131 101.441 19.5955C101.781 20.4686 101.951 21.4245 101.951 22.4632C101.951 23.4283 101.79 24.3427 101.468 25.2067C101.147 26.0615 100.664 26.8152 100.021 27.4678C99.3773 28.1111 98.573 28.6258 97.608 29.0119C96.6429 29.3887 95.5216 29.5771 94.2441 29.5771C92.9848 29.5771 91.8727 29.3979 90.9076 29.0394C89.9517 28.6718 89.1475 28.1709 88.4949 27.5366C87.8516 26.8933 87.3644 26.1397 87.0335 25.2757C86.7118 24.4025 86.551 23.465 86.551 22.4632ZM91.142 22.4632C91.142 23.0698 91.1971 23.6489 91.3075 24.2003C91.4177 24.7425 91.5923 25.2205 91.8314 25.6342C92.0795 26.0477 92.4011 26.3786 92.7964 26.6267C93.1916 26.8657 93.6742 26.9852 94.2441 26.9852C94.768 26.9852 95.2229 26.875 95.6089 26.6543C96.0041 26.4338 96.3258 26.1258 96.574 25.7306C96.8314 25.3354 97.0243 24.862 97.153 24.3106C97.2817 23.7499 97.3461 23.1342 97.3461 22.4632C97.3461 21.8565 97.2863 21.282 97.1668 20.7398C97.0566 20.1884 96.8773 19.7058 96.6291 19.2922C96.381 18.8694 96.0593 18.5385 95.6641 18.2996C95.2781 18.0514 94.8047 17.9273 94.2441 17.9273C93.6834 17.9273 93.2054 18.0467 92.8102 18.2858C92.415 18.5247 92.0933 18.851 91.8451 19.2646C91.597 19.6783 91.4177 20.1607 91.3075 20.7123C91.1971 21.2637 91.142 21.8473 91.142 22.4632Z" fill="#343A40"/>
<path d="M107.863 10.6343C107.863 10.9376 107.794 11.2087 107.656 11.4477C107.518 11.6775 107.339 11.8705 107.119 12.0268C106.898 12.183 106.641 12.3025 106.346 12.3852C106.062 12.4587 105.767 12.4955 105.464 12.4955C105.142 12.4955 104.835 12.4541 104.54 12.3714C104.255 12.2887 104.003 12.1693 103.782 12.0129C103.562 11.8475 103.387 11.6499 103.258 11.4201C103.13 11.1904 103.065 10.9284 103.065 10.6343C103.065 10.3677 103.125 10.1242 103.244 9.90359C103.373 9.67382 103.543 9.47621 103.755 9.31076C103.966 9.14532 104.219 9.01664 104.513 8.92474C104.807 8.83282 105.129 8.78687 105.478 8.78687C105.781 8.78687 106.075 8.82823 106.36 8.91095C106.654 8.99367 106.912 9.11315 107.132 9.26941C107.353 9.42565 107.528 9.61867 107.656 9.84844C107.794 10.0782 107.863 10.3402 107.863 10.6343ZM107.656 26.6959C107.656 27.569 107.477 28.24 107.119 28.7087C106.769 29.1775 106.186 29.4119 105.368 29.4119C104.596 29.4119 104.049 29.1775 103.727 28.7087C103.415 28.24 103.258 27.569 103.258 26.6959V18.2583C103.258 17.3852 103.415 16.7142 103.727 16.2455C104.049 15.7768 104.596 15.5423 105.368 15.5423C106.186 15.5423 106.769 15.7768 107.119 16.2455C107.477 16.7142 107.656 17.3852 107.656 18.2583V26.6959Z" fill="#343A40"/>
<path d="M113.996 22.4356C113.996 23.0515 114.042 23.6259 114.134 24.159C114.235 24.6921 114.4 25.1608 114.63 25.5653C114.869 25.9604 115.182 26.2729 115.568 26.5027C115.963 26.7326 116.45 26.8474 117.029 26.8474C117.562 26.8474 118.008 26.7372 118.367 26.5166C118.734 26.2868 119.028 25.9742 119.249 25.579C119.469 25.1746 119.625 24.7013 119.717 24.159C119.818 23.6167 119.869 23.0285 119.869 22.3943C119.869 21.8888 119.832 21.3741 119.758 20.8502C119.685 20.317 119.548 19.8346 119.345 19.4026C119.143 18.9706 118.863 18.6167 118.504 18.3409C118.145 18.0653 117.677 17.9274 117.098 17.9274C116.519 17.9274 116.027 18.0193 115.623 18.2032C115.227 18.3869 114.906 18.6673 114.658 19.0441C114.419 19.4209 114.249 19.8943 114.148 20.4641C114.046 21.0248 113.996 21.682 113.996 22.4356ZM113.982 18.2582C114.212 17.7712 114.506 17.3437 114.864 16.9761C115.223 16.6084 115.618 16.3006 116.05 16.0523C116.482 15.8042 116.932 15.6203 117.401 15.5009C117.88 15.3722 118.352 15.3079 118.821 15.3079C119.667 15.3079 120.43 15.4963 121.11 15.8732C121.79 16.25 122.369 16.7647 122.847 17.4173C123.334 18.0607 123.707 18.8235 123.964 19.7059C124.221 20.579 124.35 21.5166 124.35 22.5183C124.35 23.5569 124.211 24.5082 123.936 25.3722C123.67 26.2362 123.288 26.9807 122.791 27.6056C122.304 28.2215 121.716 28.704 121.027 29.0533C120.347 29.4026 119.589 29.5772 118.752 29.5772C117.723 29.5772 116.804 29.3382 115.995 28.8602C115.186 28.3823 114.515 27.7114 113.982 26.8474V31.8107C113.982 32.6837 113.803 33.3548 113.444 33.8235C113.095 34.2922 112.512 34.5267 111.693 34.5267C110.921 34.5267 110.374 34.2922 110.053 33.8235C109.74 33.3548 109.584 32.6837 109.584 31.8107V18.2582C109.584 17.385 109.74 16.7141 110.053 16.2454C110.374 15.7767 110.921 15.5422 111.693 15.5422C112.512 15.5422 113.095 15.7767 113.444 16.2454C113.803 16.7141 113.982 17.385 113.982 18.2582Z" fill="#343A40"/>
<path d="M129.201 19.2371C129.201 19.5955 129.357 19.8758 129.669 20.078C129.982 20.2711 130.414 20.4319 130.965 20.5606C131.489 20.68 132.027 20.795 132.578 20.9052C133.13 21.0156 133.668 21.1443 134.191 21.2913C134.715 21.4291 135.207 21.5946 135.667 21.7876C136.125 21.9806 136.53 22.2242 136.88 22.5183C137.229 22.8032 137.504 23.1525 137.707 23.566C137.909 23.9705 138.01 24.4577 138.01 25.0274C138.01 25.7444 137.863 26.3832 137.569 26.9438C137.275 27.4953 136.857 27.964 136.315 28.3502C135.782 28.7362 135.143 29.0349 134.398 29.2463C133.654 29.4577 132.831 29.5679 131.93 29.5771C131.076 29.5771 130.253 29.522 129.462 29.4117C128.673 29.3106 127.969 29.1497 127.353 28.9291C126.747 28.7085 126.26 28.4374 125.891 28.1157C125.524 27.7849 125.341 27.3989 125.341 26.9577C125.341 26.5716 125.464 26.2729 125.713 26.0615C125.961 25.8502 126.277 25.7444 126.664 25.7444C126.811 25.7444 126.985 25.7719 127.188 25.8271C127.39 25.8823 127.61 25.9512 127.849 26.0339C128.088 26.1166 128.341 26.2085 128.608 26.3097C128.883 26.4016 129.168 26.4843 129.462 26.5578C129.83 26.659 130.207 26.7417 130.592 26.806C130.988 26.8611 131.393 26.8887 131.807 26.8887C132.063 26.8887 132.316 26.8657 132.564 26.8198C132.813 26.7646 133.034 26.6865 133.227 26.5855C133.429 26.4751 133.594 26.3372 133.723 26.1718C133.851 26.0064 133.929 25.8042 133.957 25.5652C133.984 25.51 134.008 25.4549 134.025 25.3997C134.044 25.3446 134.054 25.2803 134.054 25.2067C134.054 24.9493 133.934 24.7196 133.695 24.5173C133.465 24.3152 133.138 24.1543 132.716 24.0349C132.008 23.8695 131.332 23.7178 130.689 23.5799C130.047 23.442 129.449 23.295 128.897 23.1387C128.355 22.9825 127.858 22.8032 127.408 22.601C126.967 22.3989 126.59 22.1506 126.277 21.8565C125.975 21.5624 125.735 21.2085 125.561 20.795C125.395 20.3813 125.312 19.8804 125.312 19.2922C125.312 18.658 125.455 18.0927 125.74 17.5964C126.034 17.0909 126.453 16.6682 126.995 16.328C127.537 15.9879 128.194 15.7306 128.967 15.556C129.738 15.3722 130.611 15.2803 131.585 15.2803C133.331 15.2803 134.66 15.4917 135.57 15.9144C136.489 16.328 136.949 16.8703 136.949 17.5413C136.949 17.9182 136.824 18.2077 136.576 18.4098C136.328 18.6029 136.029 18.6993 135.681 18.6993C135.496 18.6993 135.303 18.6672 135.101 18.6029C134.908 18.5293 134.674 18.4512 134.398 18.3685C134.122 18.2766 133.791 18.1985 133.405 18.1342C133.029 18.0606 132.56 18.0238 132 18.0238C131.576 18.0238 131.19 18.0422 130.841 18.079C130.501 18.1157 130.207 18.18 129.958 18.2719C129.72 18.3639 129.531 18.4879 129.394 18.6443C129.264 18.8005 129.201 18.998 129.201 19.2371Z" fill="#343A40"/>
<path d="M143.606 24.2968C143.606 24.7288 143.661 25.1056 143.772 25.4274C143.891 25.7491 144.052 26.0202 144.254 26.2408C144.456 26.4522 144.691 26.6131 144.956 26.7233C145.233 26.8245 145.527 26.8751 145.839 26.8751C146.207 26.8751 146.561 26.8199 146.901 26.7095C147.241 26.5993 147.54 26.4292 147.798 26.1994C148.064 25.9696 148.275 25.6801 148.432 25.3308C148.587 24.9816 148.666 24.5726 148.666 24.1039V18.2582C148.666 17.3851 148.822 16.7141 149.134 16.2454C149.456 15.7767 150.004 15.5422 150.775 15.5422C151.593 15.5422 152.176 15.7767 152.526 16.2454C152.885 16.7141 153.064 17.3851 153.064 18.2582V26.6958C153.064 27.5689 152.885 28.2399 152.526 28.7086C152.176 29.1774 151.593 29.4118 150.775 29.4118C150.004 29.4118 149.456 29.1774 149.134 28.7086C148.822 28.2399 148.666 27.5689 148.666 26.6958C148.473 27.1186 148.22 27.5046 147.907 27.8539C147.604 28.2032 147.246 28.5065 146.832 28.7638C146.427 29.012 145.978 29.2049 145.481 29.3428C144.994 29.4807 144.465 29.5496 143.895 29.5496C143.28 29.5496 142.687 29.4439 142.116 29.2326C141.556 29.012 141.06 28.6902 140.628 28.2674C140.196 27.8355 139.852 27.3024 139.594 26.6682C139.336 26.034 139.208 25.2941 139.208 24.4485V18.2582C139.208 17.3851 139.365 16.7141 139.676 16.2454C139.999 15.7767 140.545 15.5422 141.318 15.5422C142.135 15.5422 142.719 15.7767 143.068 16.2454C143.427 16.7141 143.606 17.3851 143.606 18.2582V24.2968Z" fill="#343A40"/>
<path d="M155.06 18.2582C155.06 17.385 155.216 16.7141 155.529 16.2454C155.851 15.7767 156.398 15.5422 157.169 15.5422C157.988 15.5422 158.572 15.7767 158.921 16.2454C159.279 16.7141 159.459 17.385 159.459 18.2582C159.642 17.817 159.891 17.4173 160.204 17.0588C160.525 16.6912 160.888 16.3787 161.292 16.1213C161.706 15.864 162.152 15.6663 162.629 15.5284C163.107 15.3814 163.604 15.3079 164.119 15.3079C164.596 15.3079 165.065 15.3722 165.525 15.5009C165.993 15.6203 166.426 15.818 166.821 16.0937C167.225 16.3602 167.579 16.7003 167.882 17.114C168.186 17.5275 168.42 18.0239 168.586 18.6029C168.871 17.9872 169.206 17.4679 169.592 17.045C169.978 16.6222 170.396 16.2821 170.846 16.0248C171.296 15.7674 171.766 15.5836 172.253 15.4733C172.749 15.363 173.245 15.3079 173.741 15.3079C174.329 15.3079 174.891 15.4136 175.424 15.6249C175.966 15.8363 176.439 16.1581 176.844 16.5901C177.258 17.0128 177.584 17.5506 177.822 18.2032C178.071 18.8465 178.194 19.6002 178.194 20.4641V26.6957C178.194 27.5689 178.015 28.2399 177.656 28.7086C177.308 29.1774 176.724 29.4117 175.906 29.4117C175.134 29.4117 174.587 29.1774 174.266 28.7086C173.953 28.2399 173.796 27.5689 173.796 26.6957V20.6572C173.796 20.2435 173.741 19.8759 173.632 19.5542C173.521 19.2233 173.365 18.9476 173.162 18.727C172.969 18.4973 172.74 18.3272 172.473 18.2169C172.207 18.0974 171.921 18.0376 171.619 18.0376C171.241 18.0376 170.884 18.0974 170.544 18.2169C170.204 18.3363 169.905 18.5202 169.647 18.7683C169.399 19.0166 169.196 19.3336 169.04 19.7196C168.893 20.1056 168.82 20.5699 168.82 21.1121V26.6957C168.82 27.5689 168.64 28.2399 168.282 28.7086C167.933 29.1774 167.349 29.4117 166.531 29.4117C165.759 29.4117 165.212 29.1774 164.891 28.7086C164.578 28.2399 164.421 27.5689 164.421 26.6957V20.919C164.421 19.9725 164.224 19.2555 163.829 18.7683C163.442 18.2813 162.914 18.0376 162.244 18.0376C161.848 18.0376 161.48 18.102 161.14 18.2307C160.8 18.3594 160.506 18.5477 160.258 18.796C160.009 19.0441 159.812 19.352 159.665 19.7196C159.527 20.0873 159.459 20.5101 159.459 20.988V26.6957C159.459 27.5689 159.279 28.2399 158.921 28.7086C158.572 29.1774 157.988 29.4117 157.169 29.4117C156.398 29.4117 155.851 29.1774 155.529 28.7086C155.216 28.2399 155.06 27.5689 155.06 26.6957V18.2582Z" fill="#343A40"/>
<path d="M20 27.0588C16.1015 27.0588 12.9412 23.8985 12.9412 20C12.9412 16.1015 16.1015 12.9412 20 12.9412C23.8985 12.9412 27.0588 16.1015 27.0588 20C27.0588 23.8985 23.8985 27.0588 20 27.0588Z" fill="#343A40"/>
<path d="M6.32497 22.4113C4.27939 22.772 2.87725 24.748 3.66248 26.6711C4.75876 29.3558 6.50774 31.7478 8.77516 33.617C12.0174 36.2896 16.1068 37.7177 20.308 37.6444C24.5092 37.5711 28.5463 36.0011 31.6934 33.2169C33.8941 31.2698 35.5586 28.8182 36.5606 26.0969C37.2782 24.1476 35.8079 22.2217 33.7509 21.9326C31.6941 21.6436 29.8473 23.1408 28.8313 24.9525C28.2806 25.9345 27.5656 26.8255 26.7092 27.5832C24.9035 29.1807 22.5872 30.0815 20.1768 30.1236C17.7663 30.1656 15.42 29.3463 13.5598 27.8128C12.6773 27.0853 11.9318 26.2199 11.3471 25.2577C10.2685 23.4825 8.37056 22.0506 6.32497 22.4113Z" fill="#343A40"/>
<path d="M37.5106 22.2054C37.6007 21.4829 37.6471 20.7469 37.6471 20.0001C37.6471 10.2539 29.7463 2.35303 20 2.35303C10.2538 2.35303 2.35297 10.2539 2.35297 20.0001C2.35297 20.9586 2.42938 21.8991 2.57645 22.8162C3.38701 21.7066 4.6521 20.9144 6.01857 20.6735C7.49702 20.4128 8.84071 20.7714 9.97681 21.4416C9.9097 20.9708 9.87497 20.4895 9.87497 20.0001C9.87497 14.4082 14.4081 9.87503 20 9.87503C25.5919 9.87503 30.1251 14.4082 30.1251 20.0001C30.1251 20.3688 30.1053 20.7329 30.067 21.0914C31.1791 20.3816 32.5097 19.9761 33.9966 20.1851C35.3703 20.3782 36.6618 21.1253 37.5106 22.2054Z" fill="#343A40"/>
</svg>
