<svg width="125" height="40" viewBox="0 0 125 40" fill="none" xmlns="http://www.w3.org/2000/svg">
<path d="M88.8621 37.2248C89.6211 37.2248 90.0701 36.6498 90.0701 35.7508C90.0701 34.8188 89.5881 34.2768 88.8781 34.2768C88.4721 34.2768 88.1901 34.4568 87.9791 34.7428H87.9691V33.2698H87.5291V37.1428H87.9691V36.7748H87.9791C88.2071 37.0888 88.4831 37.2248 88.8621 37.2248ZM88.8301 36.8558C88.2341 36.8558 87.9411 36.3848 87.9411 35.7558C87.9411 35.1498 88.2231 34.6508 88.8351 34.6508C89.3661 34.6508 89.6211 35.1278 89.6211 35.7558C89.6211 36.3898 89.3661 36.8558 88.8301 36.8558ZM90.8131 38.0698C91.1541 38.0698 91.3711 37.9498 91.5981 37.3698L92.7962 34.3418H92.3302L91.6901 36.0868C91.6041 36.3198 91.5061 36.6338 91.5061 36.6338H91.4961C91.4961 36.6338 91.3921 36.3198 91.3061 36.0868L90.6451 34.3418H90.1681L91.2621 37.0618L91.1541 37.3378C91.0461 37.6088 90.9211 37.6798 90.7371 37.6798C90.6344 37.685 90.5319 37.6644 90.4391 37.6198H90.4171V38.0098C90.5371 38.0588 90.6451 38.0698 90.8131 38.0698ZM93.9192 37.1428H94.6562V33.2698H93.9192V37.1428ZM96.4582 37.2248C97.3192 37.2248 97.9102 36.5848 97.9102 35.7558C97.9102 34.9268 97.3202 34.2878 96.4582 34.2878C95.5972 34.2878 95.0062 34.9278 95.0062 35.7558C95.0062 36.5858 95.5962 37.2248 96.4582 37.2248ZM96.4582 36.6608C96.0032 36.6608 95.7542 36.2978 95.7542 35.7558C95.7542 35.2148 96.0032 34.8458 96.4582 34.8458C96.9082 34.8458 97.1622 35.2148 97.1622 35.7558C97.1622 36.2978 96.9082 36.6608 96.4582 36.6608ZM99.4772 38.0908C99.8892 38.0908 100.246 37.9938 100.479 37.7768C100.685 37.5868 100.81 37.3218 100.81 36.9318V34.3638H100.1V34.6568H100.089C99.9212 34.4238 99.6672 34.2878 99.3192 34.2878C98.6162 34.2878 98.1172 34.8188 98.1172 35.6478C98.1172 36.4878 98.7242 36.9748 99.3422 36.9748C99.6942 36.9748 99.9052 36.8348 100.067 36.6498H100.084V36.9538C100.084 37.3328 99.8842 37.5338 99.4662 37.5338C99.1252 37.5338 98.9682 37.3978 98.9082 37.2238H98.1772C98.2522 37.7658 98.7182 38.0908 99.4772 38.0908ZM99.4672 36.3848C99.0872 36.3848 98.8372 36.1088 98.8372 35.6368C98.8372 35.1708 99.0872 34.8788 99.4612 34.8788C99.9052 34.8788 100.122 35.2248 100.122 35.6318C100.122 36.0438 99.9322 36.3848 99.4662 36.3848H99.4672ZM102.601 37.2248C103.462 37.2248 104.053 36.5848 104.053 35.7558C104.053 34.9268 103.462 34.2878 102.601 34.2878C101.739 34.2878 101.149 34.9278 101.149 35.7558C101.149 36.5858 101.739 37.2248 102.601 37.2248ZM102.601 36.6608C102.146 36.6608 101.896 36.2978 101.896 35.7558C101.896 35.2148 102.146 34.8458 102.601 34.8458C103.05 34.8458 103.305 35.2148 103.305 35.7558C103.305 36.2978 103.05 36.6608 102.601 36.6608ZM104.395 37.1428H105.132V34.3638H104.395V37.1428ZM104.395 33.9308H105.132V33.2698H104.395V33.9308ZM105.607 38.0528H106.344V36.8298H106.354C106.512 37.0688 106.766 37.2258 107.156 37.2258C107.871 37.2258 108.359 36.6558 108.359 35.7568C108.359 34.8898 107.888 34.2888 107.151 34.2888C106.991 34.2862 106.832 34.3234 106.689 34.3973C106.546 34.4711 106.424 34.5792 106.333 34.7118H106.317V34.3648H105.607V38.0548V38.0528ZM106.999 36.6128C106.56 36.6128 106.327 36.2818 106.327 35.7778C106.327 35.2798 106.512 34.8838 106.972 34.8838C107.427 34.8838 107.611 35.2518 107.611 35.7778C107.611 36.3038 107.373 36.6128 106.999 36.6128ZM109.829 37.2248C110.522 37.2248 110.999 36.8888 110.999 36.3308C110.999 35.6808 110.484 35.5508 110.018 35.4528C109.623 35.3718 109.255 35.3498 109.255 35.1118C109.255 34.9118 109.444 34.8018 109.731 34.8018C110.046 34.8018 110.235 34.9118 110.268 35.2088H110.934C110.88 34.6508 110.474 34.2888 109.742 34.2888C109.108 34.2888 108.61 34.5748 108.61 35.1768C108.61 35.7828 109.097 35.9188 109.596 36.0168C109.975 36.0918 110.327 36.1188 110.327 36.3848C110.327 36.5798 110.143 36.7048 109.818 36.7048C109.488 36.7048 109.26 36.5638 109.211 36.2438H108.529C108.572 36.8338 109.022 37.2248 109.829 37.2248ZM113.797 37.1428V34.3638H113.06V35.9678C113.06 36.3358 112.848 36.5958 112.502 36.5958C112.188 36.5958 112.041 36.4168 112.041 36.0918V34.3638H111.31V36.2168C111.31 36.8238 111.657 37.2188 112.274 37.2188C112.664 37.2188 112.881 37.0728 113.071 36.8188H113.087V37.1428H113.797ZM114.273 37.1428H115.01V35.5298C115.01 35.1608 115.21 34.9228 115.508 34.9228C115.779 34.9228 115.936 35.0858 115.936 35.3998V37.1438H116.673V35.5298C116.673 35.1608 116.863 34.9228 117.172 34.9228C117.443 34.9228 117.6 35.0858 117.6 35.3998V37.1438H118.337V35.2748C118.337 34.6678 118.006 34.2888 117.421 34.2888C117.069 34.2888 116.776 34.4728 116.587 34.7768H116.576C116.51 34.6292 116.401 34.5043 116.264 34.4176C116.127 34.3309 115.968 34.2861 115.806 34.2888C115.644 34.2847 115.483 34.3243 115.341 34.4035C115.199 34.4826 115.081 34.5984 114.999 34.7388H114.983V34.3648H114.273V37.1448V37.1428Z" fill="#343A40"/>
<path d="M118.481 2.14871C118.481 0.965702 119.441 0.00569438 120.624 0.00569438H122.053C122.621 0.00569438 123.166 0.231476 123.568 0.633369C123.97 1.03526 124.196 1.58035 124.196 2.14871C124.196 2.71707 123.97 3.26216 123.568 3.66405C123.166 4.06595 122.621 4.29173 122.053 4.29173H120.624C120.342 4.29173 120.064 4.23629 119.804 4.12858C119.544 4.02087 119.307 3.863 119.109 3.66399C118.91 3.46498 118.752 3.22873 118.644 2.96873C118.537 2.70874 118.481 2.43009 118.481 2.14871ZM58.49 14.2898C58.49 22.1779 52.096 28.5729 44.2069 28.5729C36.3189 28.5729 29.9238 22.1779 29.9238 14.2898C29.9238 6.39974 36.3189 0.00669439 44.2069 0.00669439C52.096 0.00669439 58.49 6.39974 58.49 14.2898ZM27.1378 14.2188C27.9278 14.2188 28.5738 14.8588 28.4948 15.6448C28.2248 18.3347 27.197 20.8927 25.5309 23.0215C23.8647 25.1504 21.6286 26.7627 19.0824 27.671C16.5363 28.5794 13.7846 28.7465 11.1472 28.153C8.50979 27.5595 6.09499 26.2296 4.18343 24.3181C2.27187 22.4065 0.942042 19.9917 0.348508 17.3543C-0.245027 14.7169 -0.0778994 11.9652 0.830468 9.41907C1.73883 6.87289 3.35114 4.63679 5.48 2.97063C7.60886 1.30446 10.1669 0.276671 12.8567 0.00669439C13.6417 -0.0733062 14.2827 0.574699 14.2827 1.3627V12.7898C14.2827 13.5798 14.9227 14.2188 15.7117 14.2188H27.1378ZM78.4872 31.4299C79.6237 31.4299 80.7136 31.8814 81.5172 32.685C82.3208 33.4886 82.7722 34.5785 82.7722 35.715C82.7722 36.8514 82.3208 37.9413 81.5172 38.7449C80.7136 39.5485 79.6237 40 78.4872 40H71.3461C70.2097 40 69.1198 39.5485 68.3162 38.7449C67.5126 37.9413 67.0611 36.8514 67.0611 35.715C67.0611 34.5785 67.5126 33.4886 68.3162 32.685C69.1198 31.8814 70.2097 31.4299 71.3461 31.4299H78.4872ZM74.2022 28.5729C82.0912 28.5729 88.4863 22.1779 88.4863 14.2898C88.4897 11.8667 87.8739 9.48298 86.6973 7.36475L89.0573 5.00473C89.3291 4.73276 89.5447 4.40991 89.6918 4.05462C89.8389 3.69932 89.9145 3.31854 89.9144 2.93401C89.9143 2.54948 89.8385 2.16873 89.6913 1.81351C89.544 1.45828 89.3282 1.13554 89.0563 0.863701C88.7843 0.591863 88.4615 0.376254 88.1062 0.229187C87.7509 0.0821192 87.3701 0.00647228 86.9855 0.00656515C86.601 0.00665801 86.2203 0.0824888 85.8651 0.229728C85.5098 0.376967 85.1871 0.592731 84.9152 0.864701L82.8552 2.92472C80.37 1.02661 77.3283 0.000662517 74.2012 0.00569438C66.3141 0.00669439 59.9201 6.39974 59.9201 14.2898C59.9201 22.1779 66.3141 28.5729 74.2022 28.5729ZM118.481 14.2898C118.481 22.1779 112.086 28.5729 104.197 28.5729C96.3093 28.5729 89.9143 22.1779 89.9143 14.2898C89.9143 6.39974 96.3093 0.00669439 104.197 0.00669439C112.086 0.00669439 118.481 6.40074 118.481 14.2898Z" fill="#343A40"/>
</svg>
