<svg width="166" height="40" viewBox="0 0 166 40" fill="none" xmlns="http://www.w3.org/2000/svg">
<g clip-path="url(#clip0_16_41)">
<path d="M50.5955 27.4517H62.2559V23.9395H54.7399V10.7102H50.5955V27.4517Z" fill="#343A40"/>
<path d="M69.1637 25.1104C67.5013 25.1104 66.6349 23.6587 66.6349 21.4811C66.6349 19.3035 67.5013 17.8284 69.1637 17.8284C70.8262 17.8284 71.7159 19.3035 71.7159 21.4811C71.7159 23.6587 70.8262 25.1104 69.1637 25.1104ZM69.1871 27.8265C73.0506 27.8265 75.5793 25.087 75.5793 21.4811C75.5793 17.8753 73.0506 15.1357 69.1871 15.1357C65.3471 15.1357 62.7715 17.8753 62.7715 21.4811C62.7715 25.087 65.3471 27.8265 69.1871 27.8265Z" fill="#343A40"/>
<path d="M82.267 31.5962C84.0465 31.5962 85.6153 31.1982 86.669 30.2616C87.629 29.3952 88.2612 28.084 88.2612 26.2811V15.4635H84.6085V16.7513H84.5616C83.8592 15.7445 82.7821 15.1123 81.1899 15.1123C78.2163 15.1123 76.1558 17.5943 76.1558 21.1065C76.1558 24.7825 78.6612 26.7962 81.3538 26.7962C82.8056 26.7962 83.7187 26.2108 84.4212 25.4147H84.5148V26.6089C84.5148 28.0606 83.8358 28.9035 82.2202 28.9035C80.9558 28.9035 80.3236 28.365 80.1129 27.7328H76.4134C76.788 30.2382 78.9655 31.5962 82.267 31.5962ZM82.2436 23.963C80.8153 23.963 79.8787 22.7923 79.8787 20.9894C79.8787 19.163 80.8153 17.9923 82.2436 17.9923C83.8358 17.9923 84.6787 19.3504 84.6787 20.966C84.6787 22.6518 83.906 23.963 82.2436 23.963Z" fill="#343A40"/>
<path d="M95.772 25.1104C94.1095 25.1104 93.2432 23.6587 93.2432 21.4811C93.2432 19.3035 94.1095 17.8284 95.772 17.8284C97.4344 17.8284 98.3242 19.3035 98.3242 21.4811C98.3242 23.6587 97.4344 25.1104 95.772 25.1104ZM95.7954 27.8265C99.6588 27.8265 102.188 25.087 102.188 21.4811C102.188 17.8753 99.6588 15.1357 95.7954 15.1357C91.9554 15.1357 89.3798 17.8753 89.3798 21.4811C89.3798 25.087 91.9554 27.8265 95.7954 27.8265Z" fill="#343A40"/>
<path d="M103.301 27.4517H107.118V15.4634H103.301V27.4517ZM103.301 13.8009H107.118V10.7102H103.301V13.8009Z" fill="#343A40"/>
<path d="M108.775 31.4089H112.591V26.2108H112.638C113.387 27.2177 114.488 27.8265 116.033 27.8265C119.171 27.8265 121.255 25.3445 121.255 21.4577C121.255 17.8518 119.311 15.1123 116.127 15.1123C114.488 15.1123 113.317 15.8382 112.498 16.9152H112.427V15.4635H108.775V31.4089ZM115.05 24.8762C113.411 24.8762 112.474 23.5416 112.474 21.5982C112.474 19.6547 113.317 18.1796 114.979 18.1796C116.619 18.1796 117.391 19.5377 117.391 21.5982C117.391 23.6352 116.501 24.8762 115.05 24.8762Z" fill="#343A40"/>
<path d="M127.468 27.8265C130.606 27.8265 132.924 26.4684 132.924 23.846C132.924 20.7786 130.442 20.2401 128.334 19.8889C126.812 19.6079 125.454 19.4908 125.454 18.6479C125.454 17.8986 126.18 17.5474 127.117 17.5474C128.17 17.5474 128.896 17.8752 129.037 18.9523H132.549C132.362 16.5874 130.535 15.1123 127.14 15.1123C124.307 15.1123 121.966 16.4235 121.966 18.9523C121.966 21.7621 124.19 22.324 126.274 22.6752C127.866 22.9562 129.318 23.0733 129.318 24.1504C129.318 24.923 128.592 25.3445 127.445 25.3445C126.18 25.3445 125.384 24.7591 125.244 23.565H121.638C121.755 26.2108 123.956 27.8265 127.468 27.8265Z" fill="#343A40"/>
<path d="M138.108 27.8029C139.771 27.8029 140.824 27.1473 141.691 25.9765H141.761V27.4517H145.414V15.4634H141.597V22.16C141.597 23.5883 140.801 24.5717 139.49 24.5717C138.272 24.5717 137.687 23.8458 137.687 22.5346V15.4634H133.894V23.3307C133.894 26 135.345 27.8029 138.108 27.8029Z" fill="#343A40"/>
<path d="M147.073 27.4518H150.89V20.7318C150.89 19.3035 151.592 18.2967 152.786 18.2967C153.934 18.2967 154.472 19.046 154.472 20.3338V27.4518H158.289V20.7318C158.289 19.3035 158.968 18.2967 160.185 18.2967C161.333 18.2967 161.871 19.046 161.871 20.3338V27.4518H165.688V19.6547C165.688 16.9621 164.33 15.1123 161.614 15.1123C160.068 15.1123 158.78 15.7679 157.844 17.2196H157.797C157.188 15.9318 155.994 15.1123 154.425 15.1123C152.693 15.1123 151.545 15.9318 150.796 17.1728H150.726V15.4635H147.073V27.4518Z" fill="#343A40"/>
<path fill-rule="evenodd" clip-rule="evenodd" d="M20.1791 39.1591C30.9554 39.1591 39.6913 30.4232 39.6913 19.6469C39.6913 8.87068 30.9554 0.134766 20.1791 0.134766C9.40281 0.134766 0.666916 8.87068 0.666916 19.6469C0.666916 30.4232 9.40281 39.1591 20.1791 39.1591ZM26.2663 9.22437C26.5625 8.17189 25.5412 7.54953 24.6084 8.21408L11.587 17.4904C10.5754 18.2111 10.7345 19.6469 11.8261 19.6469H15.2549V19.6204H21.9377L16.4925 21.5417L14.092 30.0696C13.7957 31.1221 14.817 31.7444 15.7499 31.0798L28.7712 21.8035C29.7828 21.0828 29.6236 19.6469 28.5322 19.6469H23.3324L26.2663 9.22437Z" fill="#343A40"/>
</g>
<defs>
<clipPath id="clip0_16_41">
<rect width="165.854" height="40" fill="white"/>
</clipPath>
</defs>
</svg>
