<svg width="155" height="40" viewBox="0 0 155 40" fill="none" xmlns="http://www.w3.org/2000/svg">
<g clip-path="url(#clip0_16_27)">
<path d="M51.5821 10.2839H48V26.4472H57.9164V23.2801H51.5821V10.2839Z" fill="#343A40"/>
<path d="M58.2588 20.9646C58.2588 24.4157 60.5741 26.7091 64.0688 26.7091C67.5417 26.7091 69.857 24.4157 69.857 20.9646C69.857 17.5135 67.5417 15.1982 64.0688 15.1982C60.5741 15.1982 58.2588 17.5135 58.2588 20.9646ZM61.6443 20.9427C61.6443 19.3046 62.6054 18.2125 64.0688 18.2125C65.5104 18.2125 66.4715 19.3046 66.4715 20.9427C66.4715 22.6028 65.5104 23.6949 64.0688 23.6949C62.6054 23.6949 61.6443 22.6028 61.6443 20.9427Z" fill="#343A40"/>
<path d="M70.3982 20.7901C70.3982 24.0882 72.5388 26.3161 75.5748 26.3161C77.0383 26.3161 78.3051 25.7919 78.9385 24.9401V26.4472C78.9385 27.9543 77.9993 28.959 76.3393 28.959C74.854 28.959 73.8274 28.2601 73.7619 27.0151H70.3545C70.6603 30.0075 72.9756 32.0169 76.1427 32.0169C79.8777 32.0169 82.2367 29.5925 82.2367 25.7482V15.5261H79.2006L79.0259 16.64C78.4143 15.7445 77.1256 15.1548 75.6404 15.1548C72.5824 15.1548 70.3982 17.4482 70.3982 20.7901ZM73.8056 20.7027C73.8056 19.13 74.854 18.0816 76.1864 18.0816C77.7372 18.0816 78.873 19.1082 78.873 20.7027C78.873 22.2972 77.759 23.3893 76.2082 23.3893C74.8759 23.3893 73.8056 22.2972 73.8056 20.7027Z" fill="#343A40"/>
<path d="M83.2166 20.9649C83.2166 24.416 85.5319 26.7094 89.0267 26.7094C92.4996 26.7094 94.8148 24.416 94.8148 20.9649C94.8148 17.5138 92.4996 15.1985 89.0267 15.1985C85.5319 15.1985 83.2166 17.5138 83.2166 20.9649ZM86.6022 20.943C86.6022 19.3049 87.5632 18.2128 89.0267 18.2128C90.4682 18.2128 91.4293 19.3049 91.4293 20.943C91.4293 22.6031 90.4682 23.6952 89.0267 23.6952C87.5632 23.6952 86.6022 22.6031 86.6022 20.943Z" fill="#343A40"/>
<path d="M97.7149 13.8224C98.7633 13.8224 99.6152 12.9705 99.6152 11.9003C99.6152 10.83 98.7633 10 97.7149 10C96.6446 10 95.7928 10.83 95.7928 11.9003C95.7928 12.9705 96.6446 13.8224 97.7149 13.8224ZM96.0112 26.4472H99.3968V15.5261H96.0112V26.4472Z" fill="#343A40"/>
<path d="M101.368 31.6892H104.688V25.355C105.321 26.185 106.763 26.7529 108.27 26.7529C111.524 26.7529 113.49 24.2629 113.403 20.8118C113.315 17.2952 111.284 15.1765 108.248 15.1765C106.697 15.1765 105.234 15.8536 104.622 16.8584L104.447 15.526H101.368V31.6892ZM104.753 20.9865C104.753 19.3484 105.845 18.2563 107.418 18.2563C109.012 18.2563 110.017 19.3702 110.017 20.9865C110.017 22.6029 109.012 23.7168 107.418 23.7168C105.845 23.7168 104.753 22.6247 104.753 20.9865Z" fill="#343A40"/>
<path d="M113.761 22.9963C113.848 25.2024 115.596 26.7313 118.348 26.7313C120.991 26.7313 122.826 25.3334 122.826 23.0837C122.826 21.4674 121.865 20.3971 120.073 19.9602L118.13 19.4797C117.431 19.305 116.994 19.1302 116.994 18.5623C116.994 17.9944 117.452 17.6231 118.13 17.6231C118.894 17.6231 119.396 18.1255 119.375 18.8681H122.411C122.323 16.5965 120.598 15.1768 118.195 15.1768C115.771 15.1768 113.958 16.6184 113.958 18.8026C113.958 20.266 114.766 21.4674 116.928 22.0353L118.85 22.5376C119.418 22.6905 119.658 22.9526 119.658 23.3239C119.658 23.87 119.156 24.2195 118.304 24.2195C117.321 24.2195 116.797 23.7608 116.797 22.9963H113.761Z" fill="#343A40"/>
<path d="M127.974 26.7311C129.307 26.7311 130.639 26.1195 131.316 25.224L131.535 26.4472H134.702V15.5261H131.338V21.2051C131.338 22.8432 130.858 23.7387 129.307 23.7387C128.105 23.7387 127.319 23.1927 127.319 21.1614V15.5261H123.955V22.3845C123.955 24.9838 125.397 26.7311 127.974 26.7311Z" fill="#343A40"/>
<path d="M140.036 26.4472V20.4843C140.036 18.6495 141.019 18.1253 141.98 18.1253C143.05 18.1253 143.749 18.7806 143.749 20.1348V26.4472H147.069V20.4843C147.069 18.6277 148.03 18.1035 148.991 18.1035C150.061 18.1035 150.782 18.7587 150.782 20.1348V26.4472H154.059V19.3048C154.059 16.8148 152.748 15.1548 149.93 15.1548C148.358 15.1548 147.069 15.9192 146.501 17.0987C145.846 15.9192 144.71 15.1548 142.897 15.1548C141.696 15.1548 140.582 15.7008 139.927 16.5745L139.796 15.5261H136.65V26.4472H140.036Z" fill="#343A40"/>
<path d="M0 20C0 10.5719 0 5.85786 2.92893 2.92893C5.85786 0 10.5719 0 20 0C29.4281 0 34.1421 0 37.0711 2.92893C40 5.85786 40 10.5719 40 20C40 29.4281 40 34.1421 37.0711 37.0711C34.1421 40 29.4281 40 20 40C10.5719 40 5.85786 40 2.92893 37.0711C0 34.1421 0 29.4281 0 20Z" fill="#343A40"/>
<path d="M23.9997 26C24.552 26 25.0098 26.4521 24.9001 26.9934C24.7062 27.9494 24.2352 28.8355 23.5352 29.5355C22.5976 30.4732 21.3258 31 19.9997 31C18.6736 31 17.4019 30.4732 16.4642 29.5355C15.7642 28.8355 15.2932 27.9494 15.0994 26.9934C14.9896 26.4521 15.4474 26 15.9997 26H23.9997Z" fill="white"/>
<path d="M26.1027 17.7765C25.5692 17.9194 25.2425 18.4775 25.513 18.959C25.7977 19.4658 26.1915 19.9081 26.6706 20.2514C27.4228 20.7904 28.3386 21.052 29.2621 20.9914C30.1855 20.9309 31.0594 20.5521 31.7348 19.9195C32.4103 19.2869 32.8454 18.4396 32.9662 17.5221C33.087 16.6046 32.886 15.6736 32.3973 14.8877C31.9086 14.1019 31.1625 13.5098 30.2862 13.2123C29.4099 12.9148 28.4576 12.9304 27.5915 13.2564C27.0399 13.464 26.5451 13.7893 26.1389 14.2051C25.753 14.6002 25.9241 15.2239 26.4024 15.5L26.9097 15.7929C27.6812 16.2384 27.5291 17.3943 26.6685 17.6249L26.1027 17.7765Z" fill="white"/>
<path d="M13.8978 17.7765C14.4313 17.9194 14.758 18.4775 14.4875 18.959C14.2028 19.4658 13.809 19.9081 13.33 20.2514C12.5778 20.7904 11.6619 21.052 10.7385 20.9914C9.81502 20.9309 8.94113 20.5521 8.2657 19.9195C7.59027 19.2869 7.15508 18.4396 7.03429 17.5221C6.9135 16.6046 7.11457 15.6736 7.60326 14.8877C8.09194 14.1019 8.838 13.5098 9.71431 13.2123C10.5906 12.9148 11.543 12.9304 12.4091 13.2564C12.9606 13.464 13.4555 13.7893 13.8617 14.2051C14.2476 14.6002 14.0764 15.2239 13.5981 15.5L13.0908 15.7929C12.3193 16.2384 12.4715 17.3943 13.332 17.6249L13.8978 17.7765Z" fill="white"/>
</g>
<defs>
<clipPath id="clip0_16_27">
<rect width="155" height="40" fill="white"/>
</clipPath>
</defs>
</svg>
