<svg width="213" height="40" viewBox="0 0 213 40" fill="none" xmlns="http://www.w3.org/2000/svg">
<path d="M84.4774 7.85522H79.9998V28.0593H92.3953V24.1004H84.4774V7.85522Z" fill="#343A40"/>
<path d="M92.8235 21.2058C92.8235 25.5197 95.7176 28.3864 100.086 28.3864C104.427 28.3864 107.321 25.5197 107.321 21.2058C107.321 16.8919 104.427 13.9978 100.086 13.9978C95.7176 13.9978 92.8235 16.8919 92.8235 21.2058ZM97.0554 21.1784C97.0554 19.1308 98.2567 17.7657 100.086 17.7657C101.888 17.7657 103.089 19.1308 103.089 21.1784C103.089 23.2536 101.888 24.6187 100.086 24.6187C98.2567 24.6187 97.0554 23.2536 97.0554 21.1784Z" fill="#343A40"/>
<path d="M107.998 20.9877C107.998 25.1104 110.673 27.8952 114.468 27.8952C116.298 27.8952 117.881 27.24 118.673 26.1752V28.0591C118.673 29.943 117.499 31.1989 115.424 31.1989C113.567 31.1989 112.284 30.3252 112.202 28.769H107.943C108.325 32.5095 111.219 35.0212 115.178 35.0212C119.847 35.0212 122.796 31.9907 122.796 27.1854V14.4077H119.001L118.782 15.8001C118.018 14.6807 116.407 13.9436 114.55 13.9436C110.728 13.9436 107.998 16.8104 107.998 20.9877ZM112.257 20.8785C112.257 18.9126 113.567 17.6021 115.233 17.6021C117.171 17.6021 118.591 18.8854 118.591 20.8785C118.591 22.8716 117.199 24.2367 115.26 24.2367C113.595 24.2367 112.257 22.8716 112.257 20.8785Z" fill="#343A40"/>
<path d="M124.021 21.2058C124.021 25.5197 126.915 28.3864 131.284 28.3864C135.625 28.3864 138.519 25.5197 138.519 21.2058C138.519 16.8919 135.625 13.9978 131.284 13.9978C126.915 13.9978 124.021 16.8919 124.021 21.2058ZM128.253 21.1784C128.253 19.1308 129.454 17.7657 131.284 17.7657C133.085 17.7657 134.287 19.1308 134.287 21.1784C134.287 23.2536 133.085 24.6187 131.284 24.6187C129.454 24.6187 128.253 23.2536 128.253 21.1784Z" fill="#343A40"/>
<path d="M142.144 12.2777C143.454 12.2777 144.519 11.2129 144.519 9.87509C144.519 8.53726 143.454 7.49976 142.144 7.49976C140.806 7.49976 139.741 8.53726 139.741 9.87509C139.741 11.2129 140.806 12.2777 142.144 12.2777ZM140.014 28.0588H144.246V14.4074H140.014V28.0588Z" fill="#343A40"/>
<path d="M146.71 34.6121H150.86V26.6943C151.651 27.7318 153.454 28.4417 155.338 28.4417C159.405 28.4417 161.863 25.3292 161.754 21.0153C161.644 16.6196 159.105 13.9712 155.31 13.9712C153.371 13.9712 151.543 14.8176 150.778 16.0736L150.559 14.4081H146.71V34.6121ZM150.941 21.2337C150.941 19.1861 152.306 17.8209 154.273 17.8209C156.265 17.8209 157.521 19.2133 157.521 21.2337C157.521 23.2542 156.265 24.6466 154.273 24.6466C152.306 24.6466 150.941 23.2814 150.941 21.2337Z" fill="#343A40"/>
<path d="M162.201 23.7456C162.31 26.5032 164.495 28.4143 167.935 28.4143C171.238 28.4143 173.532 26.6669 173.532 23.8548C173.532 21.8344 172.331 20.4966 170.091 19.9504L167.662 19.3498C166.788 19.1314 166.242 18.9129 166.242 18.2031C166.242 17.4932 166.815 17.0291 167.662 17.0291C168.617 17.0291 169.245 17.6571 169.218 18.5853H173.013C172.903 15.7458 170.747 13.9712 167.743 13.9712C164.713 13.9712 162.447 15.7732 162.447 18.5034C162.447 20.3327 163.457 21.8344 166.16 22.5443L168.562 23.1722C169.272 23.3633 169.572 23.6909 169.572 24.1551C169.572 24.8377 168.945 25.2746 167.88 25.2746C166.651 25.2746 165.996 24.7012 165.996 23.7456H162.201Z" fill="#343A40"/>
<path d="M179.967 28.4137C181.634 28.4137 183.299 27.6492 184.145 26.5298L184.419 28.0588H188.377V14.4075H184.172V21.5062C184.172 23.5538 183.572 24.6732 181.634 24.6732C180.131 24.6732 179.149 23.9907 179.149 21.4516V14.4075H174.944V22.9805C174.944 26.2296 176.746 28.4137 179.967 28.4137Z" fill="#343A40"/>
<path d="M195.045 28.0591V20.6055C195.045 18.312 196.274 17.6567 197.475 17.6567C198.813 17.6567 199.687 18.4759 199.687 20.1686V28.0591H203.837V20.6055C203.837 18.2847 205.038 17.6295 206.239 17.6295C207.577 17.6295 208.478 18.4485 208.478 20.1686V28.0591H212.574V19.1311C212.574 16.0186 210.935 13.9436 207.413 13.9436C205.448 13.9436 203.837 14.8991 203.127 16.3735C202.308 14.8991 200.888 13.9436 198.622 13.9436C197.12 13.9436 195.728 14.6261 194.909 15.7182L194.745 14.4077H190.813V28.0591H195.045Z" fill="#343A40"/>
<path d="M0 20C0 8.9543 8.9543 0 20 0H46.25C57.2957 0 66.25 8.9543 66.25 20V40H20C8.9543 40 0 31.0457 0 20Z" fill="#343A40"/>
<path d="M46.2499 7.49976H19.9999C13.0963 7.49976 7.49988 13.0962 7.49988 19.9998C7.49988 26.9033 13.0963 32.4998 19.9999 32.4998H46.2499C53.1534 32.4998 58.7499 26.9033 58.7499 19.9998C58.7499 13.0962 53.1534 7.49976 46.2499 7.49976Z" fill="#A7A7A7"/>
<path d="M19.9999 26.2498C23.4517 26.2498 26.2499 23.4515 26.2499 19.9998C26.2499 16.548 23.4517 13.7498 19.9999 13.7498C16.5481 13.7498 13.7499 16.548 13.7499 19.9998C13.7499 23.4515 16.5481 26.2498 19.9999 26.2498Z" fill="#212529"/>
<path d="M17.4999 18.75C18.1903 18.75 18.7499 18.1904 18.7499 17.5C18.7499 16.8096 18.1903 16.25 17.4999 16.25C16.8096 16.25 16.2499 16.8096 16.2499 17.5C16.2499 18.1904 16.8096 18.75 17.4999 18.75Z" fill="white"/>
<path d="M47.4999 26.2498C50.9517 26.2498 53.7499 23.4515 53.7499 19.9998C53.7499 16.548 50.9517 13.7498 47.4999 13.7498C44.0482 13.7498 41.2499 16.548 41.2499 19.9998C41.2499 23.4515 44.0482 26.2498 47.4999 26.2498Z" fill="#212529"/>
<path d="M45 18.75C45.6904 18.75 46.25 18.1904 46.25 17.5C46.25 16.8096 45.6904 16.25 45 16.25C44.3096 16.25 43.75 16.8096 43.75 17.5C43.75 18.1904 44.3096 18.75 45 18.75Z" fill="white"/>
</svg>
