<svg width="164" height="40" viewBox="0 0 164 40" fill="none" xmlns="http://www.w3.org/2000/svg">
<g clip-path="url(#clip0_38_445)">
<path d="M48.0756 28.2463H59.7361V24.7341H52.22V11.5049H48.0756V28.2463Z" fill="#343A40"/>
<path d="M66.6446 25.9048C64.9821 25.9048 64.1158 24.4531 64.1158 22.2755C64.1158 20.098 64.9821 18.6229 66.6446 18.6229C68.307 18.6229 69.1968 20.098 69.1968 22.2755C69.1968 24.4531 68.307 25.9048 66.6446 25.9048ZM66.668 28.6209C70.5314 28.6209 73.0602 25.8814 73.0602 22.2755C73.0602 18.6697 70.5314 15.9302 66.668 15.9302C62.828 15.9302 60.2524 18.6697 60.2524 22.2755C60.2524 25.8814 62.828 28.6209 66.668 28.6209Z" fill="#343A40"/>
<path d="M79.7474 32.3906C81.5269 32.3906 83.0957 31.9926 84.1493 31.056C85.1093 30.1897 85.7415 28.8784 85.7415 27.0755V16.258H82.0889V17.5458H82.042C81.3396 16.5389 80.2625 15.9067 78.6703 15.9067C75.6967 15.9067 73.6362 18.3887 73.6362 21.9009C73.6362 25.577 76.1415 27.5906 78.8342 27.5906C80.2859 27.5906 81.1991 27.0053 81.9015 26.2092H81.9952V27.4033C81.9952 28.855 81.3162 29.698 79.7006 29.698C78.4362 29.698 77.804 29.1594 77.5932 28.5272H73.8937C74.2684 31.0326 76.4459 32.3906 79.7474 32.3906ZM79.724 24.7575C78.2957 24.7575 77.3591 23.5867 77.3591 21.7838C77.3591 19.9575 78.2957 18.7867 79.724 18.7867C81.3162 18.7867 82.1591 20.1448 82.1591 21.7604C82.1591 23.4463 81.3864 24.7575 79.724 24.7575Z" fill="#343A40"/>
<path d="M93.2522 25.9048C91.5897 25.9048 90.7234 24.4531 90.7234 22.2755C90.7234 20.098 91.5897 18.6229 93.2522 18.6229C94.9146 18.6229 95.8044 20.098 95.8044 22.2755C95.8044 24.4531 94.9146 25.9048 93.2522 25.9048ZM93.2756 28.6209C97.139 28.6209 99.6673 25.8814 99.6673 22.2755C99.6673 18.6697 97.139 15.9302 93.2756 15.9302C89.4356 15.9302 86.86 18.6697 86.86 22.2755C86.86 25.8814 89.4356 28.6209 93.2756 28.6209Z" fill="#343A40"/>
<path d="M100.783 28.2463H104.599V16.2581H100.783V28.2463ZM100.783 14.5956H104.599V11.5049H100.783V14.5956Z" fill="#343A40"/>
<path d="M106.255 32.2033H110.071V27.0053H110.118C110.867 28.0121 111.968 28.6209 113.513 28.6209C116.651 28.6209 118.735 26.1389 118.735 22.2521C118.735 18.6463 116.791 15.9067 113.607 15.9067C111.968 15.9067 110.797 16.6326 109.978 17.7097H109.907V16.258H106.255V32.2033ZM112.53 25.6706C110.891 25.6706 109.954 24.336 109.954 22.3926C109.954 20.4492 110.797 18.9741 112.46 18.9741C114.099 18.9741 114.871 20.3321 114.871 22.3926C114.871 24.4297 113.981 25.6706 112.53 25.6706Z" fill="#343A40"/>
<path d="M124.948 28.6209C128.086 28.6209 130.404 27.2628 130.404 24.6404C130.404 21.5731 127.922 21.0345 125.815 20.6833C124.293 20.4023 122.935 20.2853 122.935 19.4423C122.935 18.6931 123.66 18.3419 124.597 18.3419C125.651 18.3419 126.377 18.6697 126.517 19.7467H130.029C129.842 17.3819 128.016 15.9067 124.62 15.9067C121.787 15.9067 119.446 17.218 119.446 19.7467C119.446 22.5565 121.67 23.1184 123.754 23.4697C125.346 23.7506 126.798 23.8677 126.798 24.9448C126.798 25.7175 126.072 26.1389 124.925 26.1389C123.66 26.1389 122.864 25.5536 122.724 24.3594H119.118C119.235 27.0053 121.436 28.6209 124.948 28.6209Z" fill="#343A40"/>
<path d="M135.588 28.5976C137.251 28.5976 138.304 27.942 139.171 26.7712H139.241V28.2463H142.894V16.2581H139.077V22.9546C139.077 24.3829 138.281 25.3664 136.97 25.3664C135.752 25.3664 135.167 24.6405 135.167 23.3293V16.2581H131.374V24.1254C131.374 26.7946 132.825 28.5976 135.588 28.5976Z" fill="#343A40"/>
<path d="M144.554 28.2463H148.371V21.5263C148.371 20.098 149.073 19.0911 150.267 19.0911C151.415 19.0911 151.953 19.8404 151.953 21.1282V28.2463H155.77V21.5263C155.77 20.098 156.449 19.0911 157.666 19.0911C158.814 19.0911 159.352 19.8404 159.352 21.1282V28.2463H163.169V20.4492C163.169 17.7565 161.811 15.9067 159.095 15.9067C157.549 15.9067 156.261 16.5623 155.325 18.0141H155.278C154.669 16.7263 153.475 15.9067 151.906 15.9067C150.174 15.9067 149.026 16.7263 148.277 17.9672H148.207V16.258H144.554V28.2463Z" fill="#343A40"/>
<path d="M24.7901 1.92879L20.9531 0.900635L17.7195 12.9685L14.8002 2.07355L10.963 3.10171L14.1172 14.8729L6.26093 7.01671L3.45196 9.82568L12.0693 18.443L1.33778 15.5675L0.309631 19.4046L12.0351 22.5465C11.9009 21.9674 11.8298 21.3641 11.8298 20.7442C11.8298 16.3563 15.3869 12.7992 19.7748 12.7992C24.1627 12.7992 27.7198 16.3563 27.7198 20.7442C27.7198 21.3601 27.6496 21.9597 27.5171 22.5353L38.1734 25.3907L39.2015 21.5536L27.4294 18.3992L38.1615 15.5235L37.1334 11.6865L25.3617 14.8406L33.2179 6.98446L30.409 4.17549L21.9112 12.6733L24.7901 1.92879Z" fill="#343A40"/>
<path d="M27.5066 22.5798C27.1777 23.9707 26.4831 25.2201 25.5302 26.2212L33.2502 33.9413L36.0591 31.1323L27.5066 22.5798Z" fill="#343A40"/>
<path d="M25.4521 26.302C24.4876 27.2871 23.2688 28.0222 21.902 28.401L24.7111 38.8849L28.5482 37.8567L25.4521 26.302Z" fill="#343A40"/>
<path d="M21.7586 28.4394C21.1245 28.6024 20.4598 28.6891 19.7748 28.6891C19.041 28.6891 18.3303 28.5896 17.6557 28.4033L14.844 38.8968L18.6811 39.9249L21.7586 28.4394Z" fill="#343A40"/>
<path d="M17.5201 28.3647C16.1742 27.967 14.977 27.2225 14.0322 26.2346L6.29321 33.9736L9.10218 36.7826L17.5201 28.3647Z" fill="#343A40"/>
<path d="M13.9676 26.1661C13.039 25.172 12.3626 23.9392 12.0407 22.5698L1.34961 25.4345L2.37776 29.2716L13.9676 26.1661Z" fill="#343A40"/>
</g>
<defs>
<clipPath id="clip0_38_445">
<rect width="163.902" height="40" fill="white"/>
</clipPath>
</defs>
</svg>
