<svg width="29" height="28" viewBox="0 0 29 28" fill="none" xmlns="http://www.w3.org/2000/svg">
<path d="M26.9423 8.53962V8.54785C26.9505 8.60543 26.967 8.67124 26.9917 8.74527C27.0492 8.91801 27.115 9.09898 27.1726 9.27173C27.296 9.61721 27.4112 9.93802 27.5017 10.2671C28.5381 13.8947 27.9952 17.876 26.021 21.1828C24.0386 24.4978 20.7647 26.8669 17.0466 27.673C10.7538 29.0385 4.35404 26.0361 1.49143 20.3684C0.685292 18.7726 0.199965 17.037 0.0518992 15.2273C-0.342943 10.1848 1.51611 6.00605 5.59614 2.79796C5.85937 2.59231 6.13905 2.40311 6.42696 2.20569C6.55857 2.11521 6.68196 2.03295 6.81357 1.94246L8.57391 1.05407C8.72198 1.00471 8.87004 0.955359 9.01811 0.906004C9.34715 0.790841 9.68441 0.675679 10.0217 0.576968C11.8643 0.0258344 13.7809 -0.130457 15.714 0.108093C15.9525 0.140997 16.1499 0.272611 16.2569 0.478258C16.3227 0.609872 16.3474 0.749712 16.3309 0.906004C16.2816 1.30085 15.9361 1.56407 15.533 1.51472C14.1511 1.36665 12.8102 1.41601 11.5435 1.66278C5.15195 2.9378 0.841584 8.81108 1.49965 15.3424C1.64772 16.8395 2.07547 18.2791 2.75821 19.6363C4.5021 23.083 7.76778 25.5836 11.4941 26.324C13.9207 26.8011 16.2816 26.6119 18.5272 25.7482C23.7507 23.7328 27.041 18.4518 26.531 12.9158C26.3747 11.2295 25.9387 9.66657 25.2395 8.27639C24.2689 6.35976 22.78 4.72281 20.7976 3.4149C20.6413 3.30796 20.5261 3.18457 20.4521 3.03651C20.3287 2.78973 20.3451 2.51828 20.4932 2.31263C20.7235 1.99182 21.1266 1.91779 21.4639 2.13166C22.8458 2.98715 24.0386 4.06474 25.0092 5.3233C25.2313 5.61121 25.4287 5.90734 25.6426 6.21992C25.7496 6.37621 25.8565 6.53251 25.9634 6.6888C26.0046 6.75461 26.0539 6.79574 26.095 6.83686L26.9423 8.53962Z" fill="white"/>
<path d="M10.3641 14.5022C10.3641 15.4564 10.3806 16.4188 10.3559 17.373C10.3312 18.3437 11.2854 18.9524 12.1162 18.4671C12.3137 18.3519 12.0422 18.5 12.2479 18.393C12.5029 18.2614 12.6016 18.0558 12.4946 17.8501C12.3877 17.6527 12.1738 17.6116 11.9024 17.7432C11.7132 17.8419 12.0093 17.6938 11.8201 17.7926C11.3677 18.0147 11.1045 17.8584 11.1045 17.3566C11.1045 15.8101 11.1045 14.2719 11.1045 12.7254C11.1045 12.347 11.1045 11.9686 11.1045 11.5902C11.1045 11.1378 11.3841 10.9733 11.7872 11.179C13.7203 12.1414 15.6534 13.112 17.5865 14.0827C17.7674 14.1732 17.899 14.2883 17.899 14.494C17.899 14.7079 17.7592 14.8148 17.5782 14.9053C16.4513 15.4729 15.3243 16.0404 14.1892 16.608C14.148 16.6245 14.0987 16.6409 14.0576 16.6656C13.8601 16.7808 13.7943 16.97 13.8766 17.1509C13.9588 17.3401 14.1727 17.4224 14.3866 17.3237C14.7321 17.1592 15.0776 16.9782 15.4148 16.8055C16.2456 16.3859 17.0765 15.9664 17.9073 15.5551C18.3597 15.333 18.6311 14.9958 18.6229 14.4858C18.6229 13.9758 18.3432 13.6385 17.899 13.4164C15.966 12.454 14.0329 11.4751 12.0998 10.5127C11.5487 10.2412 11.0222 10.3235 10.652 10.743C10.4382 10.9815 10.3641 11.2694 10.3641 11.582C10.3641 12.5527 10.3641 13.5316 10.3641 14.5022Z" fill="white" stroke="white" stroke-width="0.476612" stroke-miterlimit="10"/>
</svg>
